<svg width="174" height="40" viewBox="0 0 174 40" fill="none" xmlns="http://www.w3.org/2000/svg">
<g opacity="0.4">
<path fill-rule="evenodd" clip-rule="evenodd" d="M134.387 15.0179C135.809 14.2727 137.247 13.7346 138.881 13.7521C140.605 13.7706 142.156 14.2861 143.516 15.3256C145.496 16.839 146.555 18.8595 146.603 21.3566C146.633 22.9053 146.627 24.454 146.621 26.0027V26.0037C146.619 26.6825 146.616 27.3612 146.617 28.04V30.079L146.617 30.1616V30.1619C146.617 30.2853 146.618 30.4087 146.609 30.5322C146.583 30.8912 146.475 30.9996 146.127 31.0298C146.118 31.0298 146.108 31.0305 146.099 31.0311L146.086 31.032C146.081 31.0323 146.076 31.0325 146.071 31.0325C145.849 31.0325 145.626 31.0332 145.404 31.034L145.403 31.034C144.87 31.0358 144.338 31.0376 143.805 31.0291C143.39 31.0223 143.281 30.8999 143.256 30.4782C143.247 30.3293 143.247 30.1805 143.248 30.0316C143.248 29.9917 143.248 29.9517 143.248 29.9118C143.248 29.2988 143.249 28.6858 143.249 28.0729C143.249 26.0993 143.25 24.1257 143.244 22.1522C143.244 21.7368 143.234 21.3165 143.158 20.9121C142.818 19.1061 141.804 17.8336 140.017 17.331C137.304 16.5686 134.873 18.2886 134.415 20.8426C134.357 21.1652 134.357 21.5007 134.357 21.8318L134.356 21.915C134.352 24.6337 134.351 27.3524 134.353 30.0711C134.358 30.26 134.353 30.4491 134.338 30.6375C134.31 30.895 134.195 30.9981 133.935 31.0276C133.86 31.0346 133.784 31.0373 133.709 31.0359H131.557C131.481 31.0371 131.405 31.0333 131.33 31.0245C131.081 30.9913 130.964 30.8773 130.943 30.6186C130.929 30.4517 130.93 30.2832 130.93 30.1153V30.1152V30.1151L130.931 30.0373L130.931 29.996V16.006V5.98083C130.931 5.9399 130.931 5.89898 130.93 5.85806C130.93 5.71018 130.929 5.56231 130.939 5.41443C130.961 5.0999 131.076 4.9919 131.402 4.96132C131.468 4.95537 131.534 4.95549 131.6 4.95562L131.629 4.95565H133.668C133.762 4.95367 133.856 4.95821 133.95 4.96925C134.197 5.00436 134.314 5.12028 134.339 5.3778C134.339 8.52319 134.387 15.0179 134.387 15.0179ZM105.022 31.0568C106.074 30.721 108.013 29.7443 108.013 29.7443C108.013 29.7443 108.009 30.3258 108.045 30.6188C108.077 30.8771 108.189 30.9888 108.44 31.0206C108.553 31.0321 108.666 31.0366 108.78 31.0342H110.649L110.677 31.0342C110.762 31.0343 110.847 31.0344 110.931 31.0262C111.224 30.9979 111.344 30.8888 111.369 30.6079C111.382 30.4558 111.381 30.3038 111.38 30.1517V30.1516L111.38 30.1155L111.38 30.0415V5.91871C111.38 5.88358 111.38 5.84846 111.38 5.81333C111.381 5.69742 111.382 5.58151 111.375 5.46559C111.354 5.10121 111.25 4.96905 110.906 4.96301C110.342 4.95281 109.778 4.95482 109.214 4.95684C108.985 4.95766 108.756 4.95848 108.527 4.95848C108.489 4.95893 108.451 4.96272 108.414 4.96981C108.191 5.00946 108.074 5.11556 108.05 5.33872C108.033 5.54553 108.026 5.7531 108.03 5.96062C108.03 8.70085 108.013 15.49 108.013 15.49C108.013 15.49 105.713 13.6988 102.401 13.7485C100.891 13.7712 99.4892 14.1322 98.1857 14.8813C94.4475 17.0299 92.999 21.0528 93.9385 24.8016C94.7926 28.2196 98.0815 31.4295 102.283 31.4068C103.213 31.4019 104.13 31.3445 105.022 31.0568ZM102.434 28.0213C99.2275 27.9537 97.0363 25.4624 97.0718 22.5197C97.0703 19.4514 99.6776 17.1231 102.529 17.1552C105.598 17.19 107.992 19.7006 107.936 22.7614C107.883 25.6092 105.471 28.0855 102.434 28.0213ZM164.301 13.7561C162.501 13.9189 159.646 15.4723 159.646 15.4723V14.4147C159.617 14.1605 159.5 14.045 159.252 14.0095C159.159 13.9979 159.064 13.9928 158.97 13.9944C158.309 13.9924 157.648 13.9924 156.988 13.9944C156.874 13.9925 156.76 14.0001 156.648 14.017C156.461 14.0499 156.339 14.1681 156.32 14.3569C156.302 14.5635 156.294 14.771 156.296 14.9784V38.9879L156.296 39.084C156.295 39.2218 156.295 39.36 156.305 39.4973C156.331 39.8503 156.442 39.9817 156.792 39.9881C157.585 40.0035 158.378 40.0035 159.171 39.9881C159.511 39.9813 159.628 39.8424 159.654 39.4882C159.666 39.3199 159.665 39.1513 159.664 38.9827V38.9824C159.664 38.9435 159.664 38.9045 159.664 38.8655C159.662 36.1096 159.662 33.3538 159.664 30.5981C159.662 30.3718 159.673 30.1457 159.696 29.9207C159.719 29.7285 159.856 29.6624 160.021 29.7511C160.101 29.7944 160.177 29.8435 160.253 29.8929L160.254 29.893C160.266 29.9007 160.277 29.9084 160.289 29.9161C160.312 29.9305 160.335 29.9449 160.357 29.9592C162.342 31.2162 164.497 31.6731 166.805 31.2396C168.899 30.8461 170.661 29.8327 171.998 28.1546C173.411 26.3842 174.058 24.3646 173.94 22.0957C173.805 19.5413 172.76 17.4264 170.822 15.7876C168.948 14.2047 166.755 13.5345 164.301 13.7561ZM170.566 22.5677C170.559 25.6081 168.031 28.0466 165.159 27.9443L164.539 27.9222C161.639 27.6479 159.7 25.0832 159.712 22.5511C159.726 19.5957 162.086 17.1194 165.141 17.1137C168.352 17.1077 170.573 19.7758 170.566 22.5677ZM164.554 27.9236C164.751 27.9417 164.953 27.9493 165.159 27.9454L164.554 27.9236ZM58.8705 14.4113C57.4171 15.831 54.0905 18.5309 54.0905 18.5309C54.0287 15.6711 54.0448 12.8076 54.0608 9.9453C54.0681 8.64566 54.0754 7.34625 54.0754 6.04751C54.0754 6.00552 54.0756 5.96345 54.0758 5.92134V5.92134C54.0766 5.75593 54.0774 5.58986 54.066 5.42523C54.0437 5.10503 53.9308 4.99854 53.6079 4.96683C53.5517 4.96116 53.495 4.96116 53.4384 4.96116H51.3439C51.2681 4.96 51.1924 4.96455 51.1173 4.97475C50.8677 5.01289 50.748 5.12466 50.725 5.38067C50.7052 5.60123 50.7055 5.82302 50.7057 6.04438L50.7057 6.11585V29.8353L50.7056 29.9459C50.7052 30.0788 50.7049 30.212 50.7088 30.3447C50.7102 30.4578 50.7193 30.5708 50.7359 30.6827C50.7457 30.7682 50.7842 30.8479 50.8451 30.9087C50.906 30.9695 50.9857 31.0079 51.0713 31.0176C51.2021 31.0351 51.3342 31.0423 51.4662 31.0391H53.3342L53.3695 31.0392H53.3695H53.3695H53.3696H53.3696H53.3696H53.3696C53.4521 31.0393 53.5351 31.0395 53.617 31.0316C53.9308 31.0017 54.0411 30.89 54.066 30.5637C54.0905 28.4617 54.0905 24.3458 54.0905 24.3458C54.0905 24.3458 58.1362 28.5248 60.0686 30.6132C60.3462 30.9134 60.6501 31.0501 61.0613 31.0436C61.857 31.0309 62.654 31.0333 63.4509 31.0357H63.4511H63.4512H63.4513H63.4513H63.4514H63.4515H63.4516C63.7682 31.0367 64.0847 31.0376 64.4012 31.0376C64.4953 31.0435 64.5898 31.0397 64.6832 31.0263C64.7379 31.0147 64.7893 30.9878 64.8443 30.959C64.8699 30.9456 64.8963 30.9319 64.9241 30.919C64.8542 30.7238 64.7318 30.6018 64.6138 30.4841C64.5854 30.4557 64.5571 30.4276 64.5299 30.3987C61.8066 27.5082 56.2088 21.4195 56.2088 21.4195C56.2088 21.4195 61.4409 16.7179 64.0413 14.358L64.0566 14.3443L64.0662 14.3359L64.0663 14.3358C64.1401 14.2711 64.2223 14.199 64.1546 14.0446C64.1225 14.041 64.089 14.0363 64.0545 14.0314C63.9707 14.0196 63.8807 14.0069 63.7906 14.0069C63.4791 14.0029 63.1677 14.0034 62.8562 14.0039C62.7523 14.0041 62.6484 14.0042 62.5445 14.0042C62.2888 14.0042 62.033 14.0056 61.7772 14.007C61.1645 14.0104 60.5518 14.0138 59.9391 13.9978C59.5124 13.9865 59.1635 14.1092 58.8705 14.4113ZM116.224 25.7877C116.349 25.7877 116.473 25.787 116.598 25.7863C116.889 25.7846 117.18 25.783 117.47 25.7904C117.802 25.7991 117.891 25.8606 117.916 26.1721C117.95 26.6041 118.174 26.9111 118.482 27.1784C118.75 27.4184 119.063 27.6043 119.401 27.7259C120.813 28.2168 122.188 28.1201 123.505 27.4125C123.751 27.2751 123.972 27.0963 124.158 26.8839C124.498 26.4999 124.509 26.0626 124.223 25.6344C123.975 25.264 123.627 25.0072 123.233 24.8116C122.875 24.6392 122.493 24.521 122.1 24.4609C121.762 24.4037 121.424 24.3479 121.086 24.2921C120.531 24.2003 119.976 24.1086 119.422 24.0111C118.164 23.7903 117.053 23.2586 116.106 22.3999C115.378 21.7391 114.828 20.9549 114.608 19.9833C114.333 18.772 114.499 17.6207 115.17 16.5593C115.558 15.9438 116.07 15.4457 116.659 15.0255C117.698 14.2846 118.862 13.8946 120.129 13.7632C121.386 13.6325 122.615 13.733 123.817 14.123C124.912 14.4787 125.885 15.0383 126.661 15.906C127.35 16.6771 127.766 17.5675 127.808 18.6111C127.834 19.267 127.737 19.3663 127.073 19.3701C126.62 19.3739 126.167 19.3726 125.714 19.3714C125.487 19.3707 125.261 19.3701 125.034 19.3701C124.94 19.3701 124.845 19.3663 124.751 19.3614C124.581 19.3524 124.467 19.2738 124.433 19.0971C124.431 19.0893 124.429 19.0814 124.427 19.0736L124.424 19.059L124.422 19.0499L124.421 19.042C124.335 18.2207 123.783 17.7816 123.096 17.4893C122.292 17.1455 121.41 17.028 120.545 17.1495C119.903 17.2363 119.291 17.4285 118.745 17.7868C118.554 17.9079 118.379 18.0514 118.222 18.2143C117.801 18.6674 117.786 19.1583 118.168 19.645C118.529 20.1053 119.008 20.4047 119.565 20.5614C119.923 20.6624 120.293 20.7256 120.661 20.7885L120.672 20.7902C120.979 20.843 121.287 20.8911 121.595 20.9393C121.996 21.0018 122.396 21.0643 122.794 21.1369C124.202 21.3936 125.44 21.9857 126.477 22.9928C128.317 24.778 128.304 27.8804 126.277 29.6437C125.495 30.3234 124.616 30.8264 123.617 31.096C122.057 31.5174 120.483 31.5382 118.916 31.1337C117.688 30.8158 116.598 30.2313 115.726 29.2873C115.18 28.6967 114.744 28.0375 114.58 27.2373C114.52 26.9231 114.491 26.6035 114.494 26.2835C114.494 25.9335 114.63 25.8047 114.977 25.7926C115.266 25.7821 115.556 25.7846 115.845 25.7871C115.971 25.7882 116.097 25.7892 116.223 25.7892L116.224 25.7877ZM79.2627 14.5544C78.9311 14.6979 78.6008 14.8408 78.2683 14.9611C78.2683 14.9611 78.3011 14.505 78.2683 14.3207C78.2572 14.2449 78.2218 14.1748 78.1672 14.121C78.1127 14.0672 78.0421 14.0327 77.9662 14.0228C77.8537 14.0064 77.74 13.9997 77.6263 14.0028C76.9278 14.001 76.2292 14.001 75.5307 14.0028C75.417 13.9996 75.3032 14.0068 75.1908 14.0243C75.0281 14.0564 74.9133 14.1629 74.8918 14.3264C74.871 14.5144 74.8626 14.7036 74.8665 14.8927V20.4434V30.0721C74.8666 30.1053 74.8665 30.1385 74.8664 30.1716V30.1717C74.866 30.3273 74.8656 30.4829 74.8808 30.6385C74.9076 30.8896 75.0262 30.998 75.2852 31.0271C75.3793 31.0354 75.4737 31.0386 75.5681 31.0365H77.6071L77.6211 31.0365C77.6731 31.0365 77.7254 31.0366 77.777 31.0331C78.1569 31.0071 78.2633 30.8994 78.2845 30.5045C78.2912 30.3787 78.2903 30.253 78.2893 30.1273C78.289 30.0831 78.2886 30.0389 78.2886 29.9947C78.2869 27.2949 78.2876 24.5952 78.2909 21.8957L78.2908 21.7786C78.2902 21.4962 78.2897 21.2114 78.3355 20.9354C78.772 18.3108 81.1818 16.6357 83.8106 17.2912C85.6363 17.7462 86.6989 18.9957 87.081 20.8184C87.169 21.239 87.1826 21.6812 87.1826 22.1135C87.1896 24.1411 87.1889 26.1689 87.1882 28.1967C87.188 28.7932 87.1878 29.3896 87.1878 29.986L87.1877 30.0711V30.0711V30.0712V30.0712V30.0712C87.1873 30.2502 87.1868 30.4304 87.2041 30.6083C87.2298 30.8874 87.3559 30.9988 87.6451 31.0267C87.7418 31.036 87.8385 31.0358 87.9352 31.0355L87.9849 31.0354C88.2113 31.0363 88.4376 31.0355 88.664 31.0347H88.6643C89.0231 31.0335 89.382 31.0323 89.7408 31.0376C90.4386 31.0482 90.556 30.9599 90.556 30.2315C90.55 27.3237 90.5491 24.4162 90.5534 21.509C90.5556 19.911 90.1218 18.4395 89.1963 17.1455C87.2924 14.4834 84.667 13.4447 81.4518 13.8415C80.6932 13.9353 79.975 14.2461 79.2627 14.5544ZM68.3858 22.4859V15.1889L68.3855 15.0617C68.3851 14.9343 68.3847 14.8068 68.3881 14.6799C68.4032 14.1029 68.4836 14.0202 69.0413 14.0055C69.1292 14.0032 69.2174 14.004 69.3055 14.0047H69.3055C69.3496 14.0051 69.3935 14.0055 69.4374 14.0055H70.9648C71.0967 14.0024 71.2286 14.0077 71.3598 14.0213C71.5822 14.0508 71.706 14.161 71.7317 14.3815C71.754 14.6065 71.7632 14.8326 71.7593 15.0586C71.7608 18.8673 71.7608 22.6761 71.7593 26.485V29.9921L71.7595 30.0838V30.0838V30.0838V30.0839C71.76 30.223 71.7605 30.3625 71.7506 30.5011C71.723 30.8897 71.6094 31.0026 71.2359 31.0298C71.1982 31.0328 71.1604 31.0332 71.1227 31.0332H69.0296C68.954 31.0345 68.8783 31.0311 68.8031 31.023C68.5501 30.9909 68.4255 30.8795 68.4021 30.6295C68.3841 30.4452 68.3844 30.2579 68.3846 30.0727L68.3847 30.008C68.385 27.501 68.3853 24.9936 68.3858 22.4859ZM153.184 30.0397V22.5727C153.184 20.0831 153.184 17.5936 153.184 15.1042C153.184 15.0842 153.184 15.064 153.184 15.0439C153.184 15.0218 153.185 14.9997 153.185 14.9775V14.9774V14.977C153.185 14.8499 153.186 14.7223 153.181 14.5952C153.162 14.127 153.066 14.0281 152.617 14.0073C152.528 14.0035 152.44 14.0038 152.351 14.0041H152.351L152.277 14.0043H150.863C149.811 14.0051 149.809 14.0054 149.809 15.0865V17.6319V29.8501C149.809 29.8955 149.809 29.9409 149.809 29.9863C149.808 30.1674 149.807 30.3486 149.821 30.5298C149.848 30.881 149.97 30.9992 150.308 31.0301C150.364 31.0358 150.421 31.0358 150.477 31.0358H152.57C152.646 31.0369 152.722 31.0325 152.797 31.0226C153.021 30.989 153.141 30.8833 153.164 30.6609C153.182 30.4543 153.188 30.2469 153.184 30.0397ZM70.0359 8.80476C70.1557 8.80476 70.2756 8.80382 70.3955 8.80288H70.3955C70.6708 8.80073 70.9463 8.79857 71.2212 8.80778C71.5829 8.81986 71.712 8.93352 71.7158 9.28015C71.7279 10.1078 71.7279 10.9355 71.7158 11.7632C71.7109 12.0827 71.5806 12.2133 71.2627 12.2163C70.435 12.2284 69.6073 12.2284 68.7796 12.2163C68.4398 12.2114 68.3159 12.0804 68.3106 11.7164C68.2986 10.9076 68.2986 10.0987 68.3106 9.28959C68.3163 8.93352 68.439 8.81759 68.794 8.80589C69.0816 8.79643 69.3696 8.79867 69.6576 8.80091C69.7835 8.80189 69.9095 8.80287 70.0355 8.80287L70.0359 8.80476ZM149.733 10.144C149.734 10.2642 149.735 10.3844 149.735 10.5044C149.735 10.5964 149.735 10.6882 149.734 10.7799C149.733 11.0826 149.732 11.3844 149.74 11.6916C149.751 12.0918 149.862 12.2142 150.242 12.2202C151.015 12.2318 151.788 12.2318 152.561 12.2202C152.942 12.2145 153.082 12.0862 153.09 11.7108C153.104 10.9189 153.104 10.1272 153.09 9.33574C153.082 8.94644 152.952 8.81579 152.577 8.80899C151.804 8.7964 151.031 8.79565 150.258 8.80673C149.869 8.81239 149.751 8.9336 149.738 9.31686C149.729 9.59177 149.731 9.86796 149.733 10.144Z" fill="black"/>
<path fill-rule="evenodd" clip-rule="evenodd" d="M19.4959 2.31689C17.4073 2.31689 15.3043 2.95967 13.4651 3.64787C9.97512 4.95383 7.35685 7.76659 5.35486 10.8943C3.85389 13.2393 2.39149 15.6102 2.39149 18.4858C2.39149 27.218 10.4724 35.0491 19.4959 35.0491C22.7474 35.0491 27.1858 33.9656 29.7377 32.3872C31.1639 31.505 31.9259 30.1391 32.7365 28.6862L32.7365 28.6861C32.9899 28.2318 33.2481 27.7689 33.5329 27.3097C35.2298 24.5732 36.9122 21.5657 36.9122 18.2887C36.9122 12.789 32.9557 8.15682 28.5419 5.33495C25.9477 3.67633 22.8362 2.31689 19.4959 2.31689ZM0 18.4858C0 14.3392 1.8316 10.9949 4.21111 7.88729C7.75669 3.25685 11.3765 0 17.8322 0C19.9464 0 23.0019 0.0217 25.3186 0.690138C27.5391 1.33081 29.161 2.51816 30.6805 3.63056L30.6805 3.63057C30.87 3.76936 31.058 3.90699 31.2454 4.04224C35.9842 7.46316 39.7196 12.1682 39.7196 18.2887C39.7196 24.6017 36.5044 30.5609 31.2974 34.0139C27.988 36.2085 23.6881 37.2181 19.4959 37.2181C8.70752 37.2181 0 28.8113 0 18.4858ZM19.6324 7.13295C18.2909 7.13295 15.7724 7.93196 14.5912 8.37552C12.3496 9.21725 11.1985 11.1533 10.1315 13.1184C9.06443 15.0836 8.6464 16.7494 8.6464 18.6028C8.6464 24.231 13.3318 27.1959 16.3529 28.6553C18.6778 29.7784 22.321 29.6726 23.96 28.6553C24.204 28.5038 24.5038 28.3307 24.8331 28.1405C26.1268 27.3932 27.8761 26.3826 28.4881 25.3922C29.578 23.6284 30.8187 20.5879 30.8187 18.4757C30.8187 14.931 29.031 11.38 26.1961 9.56125C24.5298 8.49222 21.7779 7.13295 19.6324 7.13295ZM6.39106 18.4757C6.39106 15.8031 7.40428 12.7499 8.93262 10.747C11.2099 7.76253 14.4249 4.95515 18.5714 4.95515C19.9293 4.95515 23.1735 5.66445 24.6615 6.09528C25.7741 6.41741 26.9207 7.45032 27.8809 8.31529L27.8809 8.3153L27.8809 8.31532C28.3051 8.69746 28.6929 9.04682 29.0254 9.28762C32.0691 11.4925 33.1974 15.1934 33.1974 19.1383C33.1974 23.2073 30.7873 28.0859 27.4429 30.3115C25.3173 31.726 22.325 32.0901 19.6324 32.0901C17.3126 32.0901 14.3266 31.3253 12.3374 30.0379C9.22034 26.7087 6.39106 22.9028 6.39106 18.4757ZM15.1677 15.5725C16.0062 14.18 16.4932 13.3713 18.8776 13.3713C20.16 13.3713 21.8988 13.7155 22.8948 14.3507C24.5892 15.4316 25.3542 16.3038 25.3542 18.4103C25.3542 19.6655 25.3522 20.7419 24.7007 21.7901C24.5914 21.966 24.4923 22.1432 24.395 22.3173C24.0838 22.8738 23.7913 23.397 23.2437 23.7348C22.264 24.3394 20.4036 24.5428 18.8776 24.1132C18.6109 24.0381 18.3516 23.9704 18.1006 23.9048C16.2306 23.4162 14.824 23.0487 14.2456 20.6655C13.8564 19.0616 14.1489 17.1891 14.7251 16.2909C14.8881 16.0368 15.0325 15.7971 15.1677 15.5725ZM13.4438 14.3507C12.5303 15.541 11.8271 16.822 11.8271 18.4103C11.8271 22.3652 15.0504 26.7541 19.5335 26.205C19.9628 26.1525 20.3792 26.113 20.7811 26.075C22.2347 25.9373 23.4981 25.8176 24.4934 25.1591C26.4924 23.8365 27.4038 20.5269 27.4038 18.1088C27.4038 15.7645 26.3127 13.8409 24.4934 12.5306C24.0285 12.1958 23.2087 12.0015 22.4285 11.8167C22.1204 11.7437 21.8186 11.6722 21.5472 11.5941C17.6459 10.471 15.6791 11.4382 13.4438 14.3507Z" fill="black"/>
</g>
</svg>
