<svg width="18" height="18" viewBox="0 0 18 18" fill="none" xmlns="http://www.w3.org/2000/svg">
<path d="M6.89975 11.0414V11.4495C6.89975 12.2849 7.23161 13.0861 7.82232 13.6768C8.41303 14.2675 9.21421 14.5994 10.0496 14.5994C10.885 14.5994 11.6862 14.2675 12.2769 13.6768C12.8676 13.0861 13.1994 12.2849 13.1994 11.4495V10.2806C12.7322 10.1155 12.3384 9.79047 12.0876 9.36307C11.8369 8.93566 11.7453 8.43336 11.829 7.94495C11.9128 7.45654 12.1665 7.01347 12.5454 6.69405C12.9243 6.37464 13.4039 6.19945 13.8994 6.19945C14.3949 6.19945 14.8745 6.37464 15.2534 6.69405C15.6323 7.01347 15.886 7.45654 15.9698 7.94495C16.0535 8.43336 15.9619 8.93566 15.7112 9.36307C15.4604 9.79047 15.0666 10.1155 14.5994 10.2806V11.4495C14.5994 12.6562 14.12 13.8135 13.2668 14.6667C12.4135 15.5199 11.2563 15.9993 10.0496 15.9993C8.84292 15.9993 7.68567 15.5199 6.83242 14.6667C5.97917 13.8135 5.49982 12.6562 5.49982 11.4495V11.0414C4.52122 10.8757 3.63289 10.3689 2.99227 9.61082C2.35165 8.85272 2.00013 7.89228 2 6.89975L2 3.39993C2 3.02865 2.14749 2.67257 2.41003 2.41003C2.67257 2.14749 3.02865 2 3.39993 2H4.09989C4.28554 2 4.46358 2.07375 4.59484 2.20501C4.72611 2.33628 4.79986 2.51432 4.79986 2.69996C4.79986 2.88561 4.72611 3.06365 4.59484 3.19491C4.46358 3.32618 4.28554 3.39993 4.09989 3.39993H3.39993V6.89975C3.39993 7.64232 3.69491 8.35448 4.21999 8.87955C4.74506 9.40463 5.45722 9.69961 6.19979 9.69961C6.94236 9.69961 7.65451 9.40463 8.17959 8.87955C8.70466 8.35448 8.99965 7.64232 8.99965 6.89975V3.39993H8.29968C8.11404 3.39993 7.936 3.32618 7.80473 3.19491C7.67346 3.06365 7.59972 2.88561 7.59972 2.69996C7.59972 2.51432 7.67346 2.33628 7.80473 2.20501C7.936 2.07375 8.11404 2 8.29968 2H8.99965C9.37093 2 9.72701 2.14749 9.98955 2.41003C10.2521 2.67257 10.3996 3.02865 10.3996 3.39993V6.89975C10.3995 7.89228 10.0479 8.85272 9.40731 9.61082C8.76669 10.3689 7.87836 10.8757 6.89975 11.0414ZM13.8994 8.99965C14.085 8.99965 14.2631 8.9259 14.3944 8.79463C14.5256 8.66336 14.5994 8.48533 14.5994 8.29968C14.5994 8.11404 14.5256 7.936 14.3944 7.80473C14.2631 7.67346 14.085 7.59972 13.8994 7.59972C13.7138 7.59972 13.5357 7.67346 13.4045 7.80473C13.2732 7.936 13.1994 8.11404 13.1994 8.29968C13.1994 8.48533 13.2732 8.66336 13.4045 8.79463C13.5357 8.9259 13.7138 8.99965 13.8994 8.99965Z" fill="#DC734C"/>
</svg>
