<svg width="18" height="18" viewBox="0 0 18 18" fill="none" xmlns="http://www.w3.org/2000/svg">
<g clip-path="url(#clip0_1_116)">
<path d="M15.1299 5.16197H15.1298H13.7755L10.4255 8.51053C10.53 8.81574 10.5339 9.14713 10.4356 9.45563C10.3305 9.78517 10.1152 10.0685 9.82583 10.2579C9.53645 10.4474 9.19066 10.5314 8.84661 10.4959C8.50256 10.4604 8.18123 10.3075 7.93666 10.0629C7.69208 9.81833 7.53918 9.49701 7.50366 9.15296C7.46815 8.80891 7.55218 8.46312 7.74163 8.17374C7.93108 7.88436 8.2144 7.66904 8.54393 7.56398C8.85244 7.46563 9.18383 7.46954 9.48905 7.57409L12.8383 4.2248V2.87047V2.87044C12.8384 2.65718 12.9231 2.45267 13.0738 2.3018L13.0739 2.30176L14.371 1.00466C14.371 1.0046 14.3711 1.00453 14.3712 1.00447C14.4079 0.967356 14.4542 0.940991 14.5048 0.928224C14.5554 0.915489 14.6084 0.916769 14.6583 0.93192C14.7615 0.962342 14.8369 1.04797 14.8574 1.15147L14.8574 1.15137L14.7593 1.17097L14.8574 1.15157L15.1299 5.16197ZM15.1299 5.16197C15.2354 5.16196 15.3398 5.14115 15.4373 5.10072C15.5348 5.06029 15.6233 5.00105 15.6979 4.92638L16.996 3.62896L16.9962 3.62876M15.1299 5.16197L16.9962 3.62876M16.9962 3.62876C17.0329 3.59193 17.0589 3.54585 17.0714 3.49543C17.0839 3.44518 17.0826 3.39248 17.0677 3.3429C17.0373 3.23976 16.9518 3.16424 16.8489 3.14367L15.1893 2.81174L16.9962 3.62876Z" fill="#DC734C" stroke="#DC734C" stroke-width="0.2"/>
<path d="M8.99995 0.743754C4.44024 0.743783 0.74375 4.44029 0.74375 9C0.74375 13.5597 4.44027 17.2563 9 17.2563C13.5597 17.2563 17.2563 13.5597 17.2563 9C17.2563 8.2106 17.1454 7.44681 16.9374 6.7224L16.9374 6.72238L16.9363 6.71899C16.8831 6.5559 16.7687 6.4198 16.6172 6.33934C16.4657 6.25888 16.2889 6.24033 16.124 6.2876C15.959 6.33486 15.8189 6.44426 15.733 6.59276C15.6471 6.74126 15.6222 6.91729 15.6634 7.08381L15.6634 7.08382L15.6644 7.08727C15.8381 7.69416 15.9312 8.3359 15.9312 9C15.9312 9.91023 15.752 10.8115 15.4036 11.6525C15.0553 12.4934 14.5448 13.2575 13.9011 13.9011C13.2575 14.5448 12.4934 15.0553 11.6525 15.4036C10.8115 15.752 9.91022 15.9313 9 15.9313C7.16172 15.9313 5.39873 15.201 4.09887 13.9011C2.799 12.6013 2.06875 10.8383 2.06875 9C2.06875 7.16172 2.799 5.39873 4.09887 4.09887C5.39873 2.79901 7.16172 2.06875 9 2.06875L9.00009 2.06875C9.64687 2.06818 10.2906 2.15799 10.9125 2.33557C10.9962 2.36 11.0839 2.36766 11.1706 2.35812C11.2574 2.34856 11.3414 2.32195 11.4179 2.27981C11.4943 2.23767 11.5617 2.18083 11.6161 2.11256C11.6705 2.04429 11.7109 1.96594 11.735 1.88201L11.6407 1.85503L11.735 1.88201C11.759 1.79808 11.7662 1.71023 11.7562 1.6235L11.6569 1.63499L11.7562 1.6235C11.7462 1.53677 11.7191 1.45288 11.6765 1.37665L11.5892 1.4254L11.6765 1.37665C11.634 1.30042 11.5768 1.23336 11.5082 1.17931C11.4398 1.12536 11.3614 1.08545 11.2775 1.06186C10.5365 0.850048 9.77052 0.742999 8.99995 0.743754ZM8.99995 0.743754C8.99993 0.743754 8.99992 0.743754 8.9999 0.743754L9 0.843754V0.743754C8.99998 0.743754 8.99996 0.743754 8.99995 0.743754Z" fill="#DC734C" stroke="#DC734C" stroke-width="0.2"/>
<circle cx="9" cy="9" r="2.25" fill="#DC734C"/>
</g>
<defs>
<clipPath id="clip0_1_116">
<rect width="18" height="18" fill="white"/>
</clipPath>
</defs>
</svg>
