<svg width="18" height="18" viewBox="0 0 18 18" fill="none" xmlns="http://www.w3.org/2000/svg">
<path d="M13.3438 17.3906C10.7539 17.3906 7.92334 16.0044 5.11768 13.2319C2.29541 10.4429 0.90918 7.5542 0.90918 5.05566C0.90918 3.50342 1.35742 2.52393 2.37012 1.57764C2.42822 1.52783 2.49463 1.46973 2.56104 1.41162C3.10889 0.938477 3.67334 0.706055 4.21289 0.714355C4.85205 0.722656 5.45801 1.05469 5.94775 1.75195L7.75732 4.3252C8.31348 5.13037 8.34668 6.04346 7.64941 6.74072L7.04346 7.34668C6.81104 7.5791 6.79443 7.80322 7.00195 8.09375C7.32568 8.5835 7.90674 9.23096 8.46289 9.78711C9.02734 10.3516 9.84082 11.0654 10.2891 11.3809C10.5713 11.5884 10.7954 11.5718 11.0361 11.3311L11.6338 10.7334C12.3311 10.0278 13.2524 10.0693 14.0493 10.6255L16.5645 12.3687C17.3115 12.8833 17.6353 13.4561 17.6353 14.0869C17.6353 14.6265 17.3862 15.2158 16.9048 15.7554C16.8467 15.8301 16.7886 15.8965 16.7305 15.9629C15.8091 16.9507 14.8047 17.3906 13.3438 17.3906ZM13.3354 15.9214C14.2153 15.9131 14.9873 15.5977 15.5269 14.9834C15.5767 14.917 15.6265 14.8589 15.6763 14.7925C15.8672 14.5684 15.9668 14.3276 15.9668 14.1035C15.9668 13.8628 15.8755 13.647 15.6182 13.481L13.4019 12.0117C13.0947 11.8125 12.7544 11.8042 12.4556 12.1113L11.8413 12.7339C11.2021 13.3979 10.48 13.3398 9.90723 12.9414C9.32617 12.5347 8.28857 11.605 7.4585 10.7998C6.71143 10.061 5.86475 9.09814 5.43311 8.47559C5.03467 7.90283 4.97656 7.17236 5.64062 6.5332L6.27148 5.91895C6.57031 5.62842 6.57031 5.28809 6.36279 4.98096L4.83545 2.69824C4.66943 2.44922 4.45361 2.34961 4.21289 2.34961C3.98877 2.34961 3.74805 2.44922 3.52393 2.64014C3.45752 2.68994 3.39941 2.73975 3.33301 2.78955C2.71875 3.3291 2.40332 4.10107 2.39502 4.97266C2.36182 7.08936 3.82275 9.77051 6.22998 12.1528C8.62891 14.5186 11.2188 15.9546 13.3354 15.9214Z" fill="#DB734C"/>
</svg>
