<svg width="116" height="21" viewBox="0 0 116 21" fill="none" xmlns="http://www.w3.org/2000/svg">
<path d="M3.13037 17.6958C1.32129 17.6958 0.365723 16.7866 0.365723 14.9775V6.29395C0.365723 4.49414 1.41406 3.57568 3.13037 3.57568H4.03955V3.08398C4.03955 1.2749 5.03223 0.467773 6.66504 0.467773H15.0239C16.7495 0.467773 17.6494 1.2749 17.6494 3.08398V3.57568H18.5679C20.3677 3.57568 21.3232 4.49414 21.3232 6.29395V14.9775C21.3232 16.7866 20.3677 17.6958 18.5679 17.6958H17.5845V18.6792C17.5845 19.9131 16.9907 20.4512 15.8125 20.4512H5.87646C4.69824 20.4512 4.10449 19.9131 4.10449 18.6792V17.6958H3.13037ZM5.47754 2.98193V3.57568H16.2114V2.98193C16.2114 2.20264 15.8218 1.82227 15.0425 1.82227H6.64648C5.87646 1.82227 5.47754 2.20264 5.47754 2.98193ZM15.8125 9.33691C16.9907 9.33691 17.5845 9.875 17.5845 11.1089V16.2949H18.5864C19.4028 16.2949 19.8296 15.8682 19.8296 15.0518V6.21973C19.8296 5.40332 19.4028 4.97656 18.5864 4.97656H3.11182C2.28613 4.97656 1.86865 5.40332 1.86865 6.21973V15.0518C1.86865 15.8682 2.28613 16.2949 3.11182 16.2949H4.10449V11.1089C4.10449 9.875 4.75391 9.33691 5.87646 9.33691H15.8125ZM15.3394 7.17529C15.3394 6.56299 15.8774 6.0249 16.5083 6.0249C17.1299 6.0249 17.6587 6.56299 17.6587 7.17529C17.6587 7.82471 17.1299 8.33496 16.5083 8.33496C15.8774 8.33496 15.3394 7.82471 15.3394 7.17529ZM6.34033 19.0503H15.3579C15.8589 19.0503 16.0908 18.8091 16.0908 18.3081V11.4707C16.0908 10.9697 15.8589 10.7378 15.3579 10.7378H6.34033C5.84863 10.7378 5.59814 10.9697 5.59814 11.4707V18.3081C5.59814 18.8091 5.84863 19.0503 6.34033 19.0503ZM7.62988 13.8457C7.2959 13.8457 7.04541 13.5952 7.04541 13.2612C7.04541 12.9458 7.2959 12.7046 7.62988 12.7046H14.0869C14.4116 12.7046 14.6528 12.9458 14.6528 13.2612C14.6528 13.5952 14.4116 13.8457 14.0869 13.8457H7.62988ZM7.62988 17.0835C7.2959 17.0835 7.04541 16.833 7.04541 16.5176C7.04541 16.1929 7.2959 15.9424 7.62988 15.9424H14.0869C14.4116 15.9424 14.6528 16.1929 14.6528 16.5176C14.6528 16.833 14.4116 17.0835 14.0869 17.0835H7.62988ZM29.933 17V3.61279H34.9799C37.4941 3.61279 39.2753 5.34766 39.2753 7.88965V7.9082C39.2753 10.4502 37.4941 12.2222 34.9799 12.2222H31.6029V17H29.933ZM34.5531 5.09717H31.6029V10.7378H34.5531C36.4643 10.7378 37.5683 9.68945 37.5683 7.92676V7.9082C37.5683 6.14551 36.4643 5.09717 34.5531 5.09717ZM41.4 17V6.99902H43.0143V8.4834H43.1627C43.5431 7.43506 44.4801 6.82275 45.8346 6.82275C46.1407 6.82275 46.484 6.85986 46.6417 6.8877V8.45557C46.3077 8.3999 46.0016 8.36279 45.649 8.36279C44.109 8.36279 43.0143 9.33691 43.0143 10.8027V17H41.4ZM49.0819 5.06934C48.4696 5.06934 47.9686 4.56836 47.9686 3.95605C47.9686 3.34375 48.4696 2.84277 49.0819 2.84277C49.6942 2.84277 50.1951 3.34375 50.1951 3.95605C50.1951 4.56836 49.6942 5.06934 49.0819 5.06934ZM48.2655 17V6.99902H49.8797V17H48.2655ZM52.5147 17V6.99902H54.1289V8.50195H54.2774C54.7784 7.44434 55.7154 6.82275 57.1905 6.82275C59.4356 6.82275 60.688 8.14941 60.688 10.5244V17H59.0738V10.9141C59.0738 9.11426 58.3316 8.25146 56.7359 8.25146C55.1402 8.25146 54.1289 9.32764 54.1289 11.0811V17H52.5147ZM66.7556 17.0742C64.696 17.0742 63.8333 16.3135 63.8333 14.4023V8.33496H62.2561V6.99902H63.8333V4.41064H65.5032V6.99902H67.6926V8.33496H65.5032V13.9941C65.5032 15.1724 65.9114 15.6455 66.9504 15.6455C67.238 15.6455 67.3958 15.6362 67.6926 15.6084V16.9814C67.3772 17.0371 67.071 17.0742 66.7556 17.0742ZM74.6325 20.3398V6.99902H76.2467V8.59473H76.3952C77.0075 7.48145 78.1208 6.82275 79.5124 6.82275C82.0451 6.82275 83.7057 8.87305 83.7057 11.9902V12.0088C83.7057 15.1445 82.0544 17.1763 79.5124 17.1763C78.1393 17.1763 76.9425 16.4897 76.3952 15.4229H76.2467V20.3398H74.6325ZM79.1413 15.7476C80.9689 15.7476 82.0544 14.3374 82.0544 12.0088V11.9902C82.0544 9.66162 80.9689 8.25146 79.1413 8.25146C77.3229 8.25146 76.2096 9.68018 76.2096 11.9902V12.0088C76.2096 14.3188 77.3229 15.7476 79.1413 15.7476ZM88.5673 17.1763C86.6654 17.1763 85.2274 16.0259 85.2274 14.2075V14.189C85.2274 12.4077 86.5448 11.3779 88.8734 11.2388L91.7401 11.0625V10.1533C91.7401 8.91943 90.9886 8.25146 89.495 8.25146C88.2982 8.25146 87.5096 8.69678 87.2499 9.47607L87.2406 9.50391H85.6263L85.6356 9.44824C85.8954 7.88037 87.4169 6.82275 89.5507 6.82275C91.9906 6.82275 93.3544 8.0752 93.3544 10.1533V17H91.7401V15.5249H91.5917C90.9608 16.5918 89.9125 17.1763 88.5673 17.1763ZM86.8788 14.1704C86.8788 15.1816 87.7416 15.7754 88.9012 15.7754C90.5433 15.7754 91.7401 14.6992 91.7401 13.2705V12.3613L89.0682 12.5283C87.5468 12.6211 86.8788 13.1592 86.8788 14.1519V14.1704ZM100.016 20.5254C97.6036 20.5254 96.0636 19.4399 95.8131 17.7979L95.8316 17.7886H97.5015L97.5108 17.7979C97.6871 18.5586 98.5777 19.0967 100.016 19.0967C101.806 19.0967 102.873 18.2524 102.873 16.7773V14.7549H102.725C102.094 15.8589 100.962 16.4805 99.5889 16.4805C97.0006 16.4805 95.3956 14.4766 95.3956 11.6748V11.6562C95.3956 8.85449 97.0098 6.82275 99.6261 6.82275C101.036 6.82275 102.131 7.51855 102.743 8.65039H102.855V6.99902H104.469V16.8608C104.469 19.0967 102.743 20.5254 100.016 20.5254ZM99.9415 15.0518C101.797 15.0518 102.91 13.6602 102.91 11.6748V11.6562C102.91 9.6709 101.788 8.25146 99.9415 8.25146C98.086 8.25146 97.047 9.6709 97.047 11.6562V11.6748C97.047 13.6602 98.086 15.0518 99.9415 15.0518ZM111.149 17.1763C108.291 17.1763 106.566 15.1724 106.566 12.0366V12.0273C106.566 8.93799 108.328 6.82275 111.047 6.82275C113.765 6.82275 115.416 8.84521 115.416 11.8325V12.4634H108.217C108.263 14.5322 109.405 15.7383 111.186 15.7383C112.54 15.7383 113.375 15.0981 113.644 14.4951L113.681 14.4116H115.296L115.277 14.4858C114.934 15.8403 113.505 17.1763 111.149 17.1763ZM111.037 8.26074C109.553 8.26074 108.421 9.27197 108.245 11.1738H113.774C113.607 9.19775 112.512 8.26074 111.037 8.26074Z" fill="#DC734C"/>
</svg>
